<?xml version="1.0" standalone="no"?>
<!DOCTYPE svg PUBLIC "-//W3C//DTD SVG 20010904//EN"
 "http://www.w3.org/TR/2001/REC-SVG-20010904/DTD/svg10.dtd">
<svg version="1.0" xmlns="http://www.w3.org/2000/svg"
 width="1196.000000pt" height="1196.000000pt" viewBox="0 0 1196.000000 1196.000000"
 preserveAspectRatio="xMidYMid meet">
<metadata>
Created by potrace 1.11, written by Peter Selinger 2001-2013
</metadata>
<g transform="translate(0.000000,1196.000000) scale(0.100000,-0.100000)"
fill="#000000" stroke="none">
<path d="M5709 11626 c-2 -2 -53 -7 -114 -10 -60 -4 -121 -9 -135 -11 -14 -3
-59 -7 -100 -10 -41 -3 -86 -8 -100 -10 -14 -2 -43 -6 -65 -10 -23 -3 -50 -7
-61 -9 -12 -2 -45 -7 -74 -11 -55 -7 -62 -8 -145 -25 -27 -5 -61 -12 -75 -14
-14 -2 -59 -12 -100 -21 -41 -9 -82 -18 -90 -20 -49 -10 -269 -67 -290 -74
-14 -5 -52 -17 -85 -27 -109 -31 -387 -128 -460 -159 -16 -7 -66 -27 -110 -45
-225 -91 -741 -353 -753 -382 -2 -4 -7 -8 -12 -8 -10 0 -110 -60 -128 -77 -6
-6 -21 -15 -32 -18 -11 -3 -20 -11 -20 -16 0 -5 -4 -9 -9 -9 -11 0 -123 -75
-255 -172 -28 -20 -55 -41 -61 -45 -5 -5 -26 -19 -45 -33 -19 -13 -37 -27 -40
-30 -3 -4 -43 -38 -90 -76 -117 -95 -114 -92 -183 -154 -85 -76 -237 -222
-311 -299 -132 -138 -146 -153 -146 -157 0 -2 -19 -25 -42 -50 -59 -63 -67
-73 -113 -129 -21 -28 -42 -52 -45 -55 -3 -3 -19 -23 -35 -45 -16 -22 -35 -47
-42 -55 -7 -8 -37 -49 -67 -90 -31 -41 -59 -80 -63 -85 -4 -6 -30 -44 -58 -85
-27 -41 -52 -77 -55 -80 -6 -6 -21 -31 -50 -80 -11 -19 -34 -55 -50 -80 -15
-25 -41 -67 -55 -95 -15 -27 -31 -54 -35 -60 -37 -46 -231 -445 -294 -605 -10
-25 -26 -63 -36 -85 -10 -22 -22 -53 -26 -70 -4 -16 -10 -34 -14 -40 -11 -15
-126 -368 -147 -452 -5 -21 -9 -36 -21 -78 -6 -22 -13 -51 -16 -65 -3 -14 -15
-68 -27 -120 -11 -52 -22 -106 -24 -118 -2 -13 -8 -45 -14 -70 -6 -26 -13 -65
-16 -87 -3 -22 -10 -65 -15 -95 -9 -55 -15 -99 -26 -200 -3 -30 -7 -66 -10
-80 -26 -163 -26 -833 1 -1040 2 -19 7 -62 9 -95 3 -33 8 -71 10 -85 6 -31 16
-105 21 -145 17 -144 115 -570 173 -750 9 -27 17 -54 18 -60 3 -16 54 -168 63
-190 5 -11 37 -92 71 -180 35 -88 78 -190 96 -227 18 -38 30 -68 28 -68 -3 0
4 -13 16 -30 12 -16 18 -30 15 -30 -3 0 3 -14 15 -30 12 -17 18 -30 15 -30 -4
0 2 -15 13 -32 17 -29 38 -68 128 -238 11 -19 22 -37 27 -38 4 -2 7 -7 7 -12
0 -16 166 -281 184 -292 6 -5 7 -8 1 -8 -7 0 -7 -3 0 -8 6 -4 24 -27 40 -52
17 -25 34 -49 38 -55 10 -14 84 -114 105 -144 9 -13 24 -31 32 -40 8 -9 26
-32 40 -51 14 -19 34 -46 46 -60 12 -14 48 -56 81 -95 94 -112 121 -143 254
-281 85 -88 269 -267 269 -261 0 2 24 -18 52 -46 29 -27 69 -61 88 -76 19 -14
40 -31 45 -37 8 -9 72 -60 120 -97 5 -4 21 -17 35 -28 14 -12 45 -35 70 -52
25 -17 47 -33 50 -37 9 -10 205 -147 230 -160 14 -7 27 -16 30 -20 5 -7 269
-170 275 -170 2 0 41 -22 87 -48 100 -58 477 -244 498 -247 5 0 172 -70 205
-85 55 -26 317 -115 505 -171 76 -23 294 -79 330 -85 14 -3 33 -7 42 -10 10
-3 28 -7 40 -10 13 -2 34 -6 48 -9 14 -3 59 -12 100 -20 69 -13 89 -17 160
-29 48 -9 185 -28 215 -31 109 -10 173 -17 194 -20 154 -26 927 -26 1092 0 13
2 56 6 94 10 71 6 80 7 170 19 127 17 362 60 520 96 107 24 98 22 222 55 54
15 103 28 108 29 94 21 444 144 670 237 17 7 33 12 38 11 4 -1 7 2 7 6 0 4 17
14 38 21 107 38 693 346 722 380 3 4 22 15 43 26 21 11 45 28 54 38 9 9 20 17
25 17 10 0 236 157 313 218 6 4 39 30 75 57 36 27 67 52 70 55 3 3 37 31 75
62 74 60 86 71 233 206 123 112 282 275 392 402 30 35 60 68 65 74 6 6 30 36
55 66 25 30 47 57 50 60 4 3 19 23 35 45 17 22 32 42 35 45 13 12 143 194 201
280 35 52 67 97 70 100 3 3 9 12 12 20 4 8 16 29 27 45 11 17 23 37 27 45 3 8
9 17 13 20 11 10 110 188 110 199 0 6 5 11 10 11 6 0 10 4 10 9 0 5 16 37 34
70 19 34 32 61 28 61 -4 0 -2 4 3 8 16 11 197 398 209 447 2 6 7 19 11 30 54
133 167 466 181 530 1 6 12 46 23 90 12 44 24 91 27 105 3 14 7 33 10 42 6 21
8 29 38 178 31 154 40 208 51 295 3 28 8 61 10 75 2 14 7 57 10 95 4 39 8 77
10 85 12 43 20 257 20 515 0 249 -4 366 -20 520 -12 126 -17 172 -21 190 -2
11 -7 40 -10 65 -3 25 -7 56 -10 70 -2 14 -8 52 -14 85 -5 33 -12 71 -15 85
-3 14 -8 39 -10 55 -3 17 -13 59 -21 95 -15 63 -22 97 -24 112 -1 4 -6 22 -11
40 -6 18 -12 44 -15 58 -5 24 -14 56 -50 173 -9 28 -18 59 -19 67 -2 8 -4 15
-5 15 -1 0 -3 7 -5 16 -7 36 -107 310 -150 414 -26 61 -52 124 -58 140 -19 48
-213 435 -247 490 -16 28 -33 57 -37 65 -5 8 -30 51 -56 95 -27 44 -54 89 -60
100 -7 11 -15 22 -18 25 -3 3 -32 46 -64 95 -33 50 -62 92 -65 95 -3 3 -23 31
-45 64 -22 32 -49 68 -60 81 -11 12 -31 37 -44 56 -13 19 -30 41 -38 49 -7 8
-29 35 -49 60 -20 25 -53 65 -74 90 -21 25 -48 56 -60 70 -98 114 -322 342
-455 461 -33 30 -72 66 -87 81 -16 14 -28 24 -28 22 0 -3 -11 5 -24 18 -13 13
-32 30 -42 38 -11 8 -53 42 -94 75 -165 133 -524 385 -548 385 -6 0 -12 4 -14
8 -1 5 -30 23 -63 42 -33 18 -62 36 -65 39 -3 3 -23 16 -45 27 -22 12 -60 34
-85 48 -102 59 -438 220 -449 216 -2 -1 -7 2 -10 7 -6 10 -279 122 -346 143
-22 7 -45 16 -50 21 -6 4 -22 10 -36 12 -13 3 -41 12 -62 20 -20 9 -37 13 -37
10 0 -3 -6 0 -13 6 -8 6 -22 12 -33 14 -21 4 -143 40 -211 63 -42 14 -64 19
-118 30 -26 5 -48 11 -58 14 -10 5 -128 32 -150 36 -16 2 -32 6 -37 9 -4 3
-25 7 -46 10 -22 4 -47 8 -56 11 -21 6 -36 9 -128 24 -41 6 -84 13 -95 15 -11
2 -31 6 -45 9 -14 3 -47 7 -75 10 -65 7 -133 16 -170 21 -16 3 -64 7 -105 11
-41 3 -93 8 -115 10 -49 6 -721 15 -726 10z m-388 -409 c8 -7 40 -46 71 -87
88 -118 163 -188 263 -247 52 -31 155 -68 213 -78 17 -3 47 -8 65 -11 42 -7
185 -7 217 1 14 3 41 8 60 11 50 8 156 50 220 86 133 74 206 145 266 257 39
72 59 84 130 77 70 -7 104 -27 105 -64 0 -15 2 -36 4 -47 2 -11 6 -45 9 -75 9
-94 65 -233 130 -324 148 -208 375 -329 632 -335 225 -5 407 72 589 252 41 40
83 74 93 74 26 1 98 -34 122 -59 23 -25 23 -27 -4 -158 -70 -345 116 -704 441
-851 55 -26 109 -43 205 -65 13 -3 68 -7 123 -9 146 -6 264 25 388 100 91 55
96 55 161 -8 35 -35 56 -64 56 -78 0 -12 -25 -59 -55 -104 -100 -149 -144
-275 -150 -425 -3 -83 21 -235 44 -277 5 -10 21 -44 35 -77 83 -190 253 -350
435 -411 138 -46 371 -53 498 -16 60 17 82 4 108 -67 10 -26 22 -51 26 -56 5
-6 9 -27 9 -49 0 -33 -8 -47 -68 -110 -37 -40 -78 -86 -90 -104 -33 -47 -78
-142 -92 -193 -25 -93 -29 -126 -30 -240 -2 -207 68 -390 204 -537 104 -112
228 -186 366 -218 99 -22 127 -33 136 -53 14 -33 13 -98 -1 -138 -13 -34 -27
-47 -94 -87 -173 -103 -274 -216 -346 -387 -13 -31 -27 -68 -29 -81 -23 -100
-27 -135 -27 -214 -1 -218 82 -413 242 -576 26 -26 121 -95 156 -113 42 -21
57 -75 38 -135 -7 -24 -70 -55 -145 -71 -63 -14 -186 -68 -245 -108 -66 -44
-160 -143 -205 -216 -41 -68 -96 -196 -105 -246 -2 -14 -9 -47 -14 -75 -15
-75 -6 -239 17 -316 26 -88 83 -199 143 -280 32 -43 47 -73 44 -87 -6 -32 -44
-78 -80 -98 -29 -15 -40 -16 -82 -6 -48 11 -217 10 -263 -2 -14 -4 -36 -9 -50
-12 -163 -33 -347 -150 -444 -282 -96 -131 -157 -315 -158 -477 0 -91 16 -178
53 -279 53 -140 55 -151 36 -179 -26 -40 -48 -38 -163 19 -140 69 -249 94
-389 90 -327 -11 -615 -224 -720 -531 -36 -107 -50 -275 -31 -370 23 -110 19
-124 -45 -163 -59 -36 -80 -30 -127 36 -109 153 -236 253 -389 307 -106 37
-178 48 -315 49 -42 1 -74 4 -72 7 2 4 39 19 81 34 296 105 614 247 808 359
55 32 116 67 135 78 19 11 49 31 67 44 17 13 34 24 37 24 10 0 215 148 300
217 513 413 924 923 1205 1495 65 134 195 438 186 438 -2 0 3 16 11 36 37 88
136 438 159 559 32 177 44 251 50 310 4 39 9 78 11 88 21 113 21 714 -1 825
-1 9 -6 51 -10 92 -4 41 -9 84 -11 95 -2 11 -6 40 -9 65 -22 190 -58 320 -87
320 -11 0 -3 -150 17 -315 28 -231 23 -660 -10 -905 -3 -19 -8 -55 -11 -80
-21 -166 -94 -490 -160 -705 -28 -95 -111 -319 -163 -443 -114 -272 -354 -689
-520 -902 -10 -14 -36 -48 -58 -76 -218 -290 -567 -623 -908 -865 -307 -218
-598 -383 -807 -458 -46 -16 -146 -54 -223 -84 -254 -99 -416 -149 -630 -196
-146 -32 -154 -34 -245 -46 -30 -4 -57 -8 -60 -10 -3 -2 -32 -6 -65 -10 -33
-3 -73 -8 -90 -10 -219 -27 -803 -27 -944 0 -10 2 -42 6 -72 9 -30 3 -65 8
-79 11 -14 3 -40 8 -59 11 -18 3 -43 8 -55 10 -11 2 -37 7 -56 10 -19 3 -69
14 -110 24 -41 11 -86 21 -100 24 -14 3 -68 17 -120 31 -52 15 -102 28 -110
30 -53 11 -333 108 -482 168 -144 56 -180 67 -192 58 -24 -20 -8 -38 72 -79
164 -84 593 -256 693 -277 9 -2 47 -13 84 -24 37 -12 81 -24 98 -27 17 -2 33
-7 37 -9 15 -9 197 -47 335 -70 50 -8 99 -17 110 -19 11 -2 49 -7 85 -10 36
-4 80 -9 98 -11 237 -30 735 -25 982 10 14 2 49 7 79 10 30 4 63 9 75 11 11 2
38 6 61 10 22 3 92 17 155 31 63 13 133 29 155 33 22 5 54 9 70 9 26 0 21 -4
-39 -35 -160 -81 -299 -221 -360 -359 -10 -22 -22 -49 -27 -60 -22 -49 -50
-188 -56 -275 -3 -52 -11 -101 -17 -108 -15 -15 -96 -18 -121 -5 -10 6 -36 44
-59 86 -176 324 -502 481 -855 412 -235 -46 -415 -184 -554 -427 -31 -54 -49
-62 -113 -52 -60 9 -101 44 -114 97 -69 282 -227 461 -497 563 -34 13 -72 26
-85 28 -13 3 -45 9 -73 15 -62 12 -214 7 -275 -8 -101 -26 -207 -76 -291 -137
-91 -66 -147 -74 -215 -29 -36 23 -39 38 -20 103 48 173 36 345 -35 517 -170
411 -662 597 -1059 400 -36 -17 -84 -42 -108 -54 -48 -25 -64 -20 -106 30 -29
34 -28 43 5 116 21 47 54 166 64 228 7 47 7 197 0 240 -27 155 -104 302 -216
414 -186 184 -429 271 -648 231 -74 -13 -91 -6 -126 54 -41 71 -36 91 51 181
42 43 91 101 109 129 187 293 169 662 -46 931 -126 159 -267 235 -530 285 -62
12 -102 45 -113 93 -10 44 0 62 69 116 220 173 324 373 327 628 3 258 -84 436
-306 628 -93 80 -117 145 -81 215 16 32 27 36 100 46 265 33 517 274 596 570
31 113 31 290 1 397 -39 138 -90 229 -189 339 -34 36 -64 76 -68 87 -10 33 13
87 50 120 30 26 41 29 77 25 140 -14 285 -12 358 7 215 54 410 210 509 408
122 240 111 567 -25 758 -44 61 -43 90 2 145 64 76 73 77 167 20 124 -75 220
-117 313 -137 65 -14 250 -13 319 2 346 73 604 385 619 748 3 59 -15 177 -38
255 -20 69 -20 84 0 126 20 42 70 74 115 74 41 0 44 -2 94 -65 102 -128 223
-215 375 -266 82 -28 111 -32 215 -35 177 -5 287 23 435 110 121 71 219 173
286 300 60 115 79 186 89 335 2 42 10 80 17 87 33 32 127 33 169 1z"/>
<path d="M5877 10573 c-1 0 -60 -4 -132 -7 -169 -8 -290 -21 -505 -52 -31 -5
-297 -58 -342 -69 -142 -33 -397 -116 -573 -186 -122 -48 -452 -212 -558 -277
-37 -23 -69 -42 -72 -42 -8 0 -279 -183 -370 -250 -439 -324 -829 -755 -1107
-1220 -74 -124 -92 -158 -176 -325 -168 -337 -274 -647 -337 -990 -10 -49 -19
-97 -20 -106 -15 -77 -43 -287 -51 -379 -3 -36 -7 -76 -9 -90 -23 -134 -23
-738 0 -881 2 -13 6 -42 9 -64 12 -91 19 -124 43 -198 15 -44 35 -89 45 -100
18 -22 18 -22 12 26 -6 49 -7 64 -20 277 -15 228 -8 690 11 825 2 17 7 55 10
85 4 30 8 69 10 85 5 43 17 127 21 150 2 11 9 49 15 84 5 36 12 67 13 70 2 3
7 24 10 46 4 22 11 56 16 75 5 19 11 46 14 60 12 71 86 314 139 460 67 184
205 484 272 589 14 22 25 43 25 46 0 11 165 261 234 355 67 91 163 211 236
295 82 95 395 399 500 486 619 515 1293 855 1985 1004 66 14 136 28 155 30 19
3 46 7 60 10 27 6 56 10 140 20 30 3 66 8 80 10 119 18 524 24 725 11 106 -7
123 -8 210 -21 22 -3 59 -8 82 -10 80 -8 331 -54 413 -75 19 -5 46 -11 60 -14
179 -36 710 -209 831 -271 16 -9 38 -15 47 -13 20 4 -64 70 -148 116 -88 48
-315 137 -510 201 -116 39 -481 133 -560 146 -38 6 -93 16 -125 21 -11 2 -40
6 -65 9 -25 3 -54 8 -65 10 -11 2 -54 7 -95 10 -41 4 -86 9 -100 11 -45 7
-477 23 -483 17z"/>
<path d="M5687 9623 c-1 -1 -171 -4 -377 -8 -546 -9 -870 -19 -970 -30 -25 -2
-86 -7 -137 -10 -141 -9 -164 -13 -198 -39 -36 -28 -39 -45 -19 -99 21 -55 18
-87 -18 -174 -38 -96 -39 -141 -4 -188 37 -48 53 -93 51 -140 -6 -108 -24
-354 -30 -410 -3 -22 -7 -80 -10 -130 -4 -49 -8 -110 -10 -135 -2 -25 -7 -81
-10 -125 -3 -44 -8 -105 -11 -135 -7 -78 -12 -143 -19 -235 -3 -44 -7 -105
-10 -135 -2 -30 -7 -91 -10 -135 -19 -265 -56 -380 -167 -527 -110 -146 -173
-290 -208 -482 -17 -92 -18 -159 -13 -960 2 -473 6 -1170 8 -1547 3 -740 9
-996 25 -1079 13 -69 40 -111 90 -139 40 -22 182 -53 305 -66 33 -3 76 -8 95
-11 19 -2 71 -7 115 -9 44 -3 107 -8 140 -10 353 -27 1657 -27 1920 0 22 2 69
6 105 9 128 11 177 17 290 31 686 90 1215 264 1595 523 44 30 82 58 85 61 3 3
28 24 55 46 64 50 210 195 262 260 49 62 113 152 113 162 0 3 6 14 14 22 24
27 103 192 135 284 32 93 66 217 77 282 3 20 8 47 10 59 32 164 36 454 8 646
-14 97 -48 240 -75 322 -122 365 -388 643 -812 852 -175 85 -296 129 -500 180
-93 24 -173 49 -178 57 -27 43 -5 63 121 109 101 37 254 111 328 157 29 18 55
33 58 33 3 0 42 28 87 62 142 106 294 272 374 406 86 143 165 357 189 507 3
22 7 42 9 45 2 3 6 37 10 75 4 39 9 79 11 90 6 29 6 285 0 315 -3 14 -7 46
-10 71 -7 66 -23 132 -52 224 -133 415 -443 710 -930 884 -103 37 -287 88
-379 107 -22 4 -42 8 -45 9 -8 2 -91 16 -125 21 -16 2 -41 6 -55 9 -14 3 -50
7 -80 10 -30 3 -71 8 -90 10 -112 15 -221 18 -653 19 -263 1 -479 0 -480 -1z
m-1474 -618 c12 -12 15 -52 16 -217 0 -112 4 -284 8 -383 10 -250 10 -902 -1
-1005 -4 -46 -12 -95 -17 -107 -12 -33 -85 -47 -151 -30 -41 11 -43 37 -23
287 1 19 6 78 9 130 4 52 9 106 11 120 2 14 7 63 10 110 4 47 9 93 10 102 2 9
7 52 10 95 4 43 8 89 10 103 2 14 6 59 10 100 3 41 8 91 10 110 4 32 7 58 20
190 13 130 16 158 20 190 2 19 7 64 10 100 6 71 15 120 20 120 2 0 10 -7 18
-15z m2017 -398 c19 -2 60 -8 90 -12 71 -9 223 -49 291 -75 311 -122 485 -344
529 -670 37 -277 -16 -519 -154 -699 -161 -209 -476 -358 -885 -417 -25 -4
-55 -8 -66 -10 -10 -2 -51 -6 -90 -10 -38 -3 -83 -8 -100 -10 -16 -2 -136 -6
-265 -9 -254 -6 -317 1 -385 40 -56 32 -108 107 -119 171 -7 40 -15 290 -21
684 -3 184 -8 382 -11 440 -3 58 -7 134 -9 170 -3 64 -10 149 -20 245 -5 42
-2 54 17 77 13 15 37 30 53 32 191 29 300 42 440 51 55 4 101 8 103 10 5 5
563 -2 602 -8z m-2102 -1661 c33 -11 27 -35 -31 -122 -159 -240 -205 -344
-221 -506 -2 -25 -9 -55 -15 -66 -23 -43 -152 -55 -190 -18 -25 26 -21 170 8
266 24 79 81 201 150 319 62 106 77 120 141 129 63 9 125 8 158 -2z m1902
-1230 c69 -4 136 -9 150 -11 14 -2 52 -6 85 -10 33 -3 69 -8 80 -10 11 -1 45
-6 75 -10 186 -23 518 -128 665 -209 368 -207 544 -619 434 -1024 -40 -150
-124 -294 -236 -407 -89 -90 -173 -144 -318 -204 -52 -22 -199 -68 -245 -77
-14 -3 -41 -9 -60 -14 -19 -5 -51 -12 -70 -15 -19 -3 -60 -10 -90 -15 -75 -12
-116 -18 -180 -24 -30 -3 -82 -8 -115 -12 -105 -11 -878 -14 -911 -3 -47 15
-53 39 -48 200 2 79 6 515 9 969 5 947 -3 871 96 880 78 7 533 5 679 -4z"/>
</g>
</svg>
